# xmcd
#
# Track frame offsets: 
#        182
#        14160
#        27587
#        43845
#        57440
#        68102
#        88662
#        102800
#        116142
#        135345
#        150992
#        164290
#        177777
#        192020
#        205575
#        222037
#
# Disc length: 3226 seconds
#
# Revision: 1
# Processed by: cddbd v1.5.2PL0 Copyright (c) Steve Scherf et al.
# Submitted via: ExactAudioCopyFreeDBPlugin 1.0
#
DISCID=d70c9810
DTITLE=Studiemusikere - Line dancing album
DYEAR=1900
DGENRE=country
TTITLE0=Love potion no. 9
TTITLE1=Twistin' the night away
TTITLE2=Thank God I'm a country boy
TTITLE3=Watermelon crawl
TTITLE4=Hello Mary Lou,goodbye heart
TTITLE5=If I said you had a beautiful body would you hold it against m
TTITLE5=e
TTITLE6=Rhinestone cowboy
TTITLE7=The rock N roll waltz
TTITLE8=Lyin' eyes
TTITLE9=Blanket on the ground
TTITLE10=Shake rattle and roll
TTITLE11=I'm gonna be a country boy again
TTITLE12=Country roads
TTITLE13=Summertime blues
TTITLE14=Be-bop-a-lula
TTITLE15=MMM Bop
EXTD=
EXTT0=
EXTT1=
EXTT2=
EXTT3=
EXTT4=
EXTT5=
EXTT6=
EXTT7=
EXTT8=
EXTT9=
EXTT10=
EXTT11=
EXTT12=
EXTT13=
EXTT14=
EXTT15=
PLAYORDER=
